HIERARCHY
ROOT Hips
{
  OFFSET -331.093 83.8371 -317.828
  CHANNELS 6 Xposition Yposition Zposition Zrotation Xrotation Yrotation
  JOINT LeftUpLeg
  {
    OFFSET 8.64259 1.95398 -2.38835
    CHANNELS 3 Zrotation Xrotation Yrotation
    JOINT LeftLeg
    {
      OFFSET 43.7702 0 0
      CHANNELS 3 Zrotation Xrotation Yrotation
      JOINT LeftFoot
      {
        OFFSET 40.6238 0 0
        CHANNELS 3 Zrotation Xrotation Yrotation
        JOINT LeftToeBase
        {
          OFFSET 12.7242 0 0
          CHANNELS 3 Zrotation Xrotation Yrotation
          End Site
          {
            OFFSET 0 0 0
          }
        }
      }
    }
  }
  JOINT RightUpLeg
  {
    OFFSET -8.2249 1.95398 -2.59336
    CHANNELS 3 Zrotation Xrotation Yrotation
    JOINT RightLeg
    {
      OFFSET 43.5653 0 0
      CHANNELS 3 Zrotation Xrotation Yrotation
      JOINT RightFoot
      {
        OFFSET 40.6238 0 0
        CHANNELS 3 Zrotation Xrotation Yrotation
        JOINT RightToeBase
        {
          OFFSET 12.7242 0 0
          CHANNELS 3 Zrotation Xrotation Yrotation
          End Site
          {
            OFFSET 0 0 0
          }
        }
      }
    }
  }
  JOINT Spine
  {
    OFFSET 0.165834 0.87714 6.61349
    CHANNELS 3 Zrotation Xrotation Yrotation
    JOINT Spine1
    {
      OFFSET 7.38963 1.71661e-005 0
      CHANNELS 3 Zrotation Xrotation Yrotation
      JOINT Spine2
      {
        OFFSET 11.9445 1.14441e-005 0
        CHANNELS 3 Zrotation Xrotation Yrotation
        JOINT Spine3
        {
          OFFSET 14.7254 4.19617e-005 0
          CHANNELS 3 Zrotation Xrotation Yrotation
          JOINT Spine4
          {
            OFFSET 10.9679 0 0
            CHANNELS 3 Zrotation Xrotation Yrotation
            JOINT RightShoulder
            {
              OFFSET 2.46616 -1.6653 3.69651
              CHANNELS 3 Zrotation Xrotation Yrotation
              JOINT RightArm
              {
                OFFSET 13.0012 0 0
                CHANNELS 3 Zrotation Xrotation Yrotation
                JOINT RightForeArm
                {
                  OFFSET 28.7848 1.62311e-005 0
                  CHANNELS 3 Zrotation Xrotation Yrotation
                  JOINT RightHand
                  {
                    OFFSET 26.5688 1.62095e-005 0
                    CHANNELS 3 Zrotation Xrotation Yrotation
                    End Site
                    {
                      OFFSET 0 0 0
                    }
                  }
                }
              }
            }
            JOINT LeftShoulder
            {
              OFFSET 2.38034 -1.29275 -3.7523
              CHANNELS 3 Zrotation Xrotation Yrotation
              JOINT LeftArm
              {
                OFFSET 16.3182 6.07031e-005 0
                CHANNELS 3 Zrotation Xrotation Yrotation
                JOINT LeftForeArm
                {
                  OFFSET 27.0901 0 0
                  CHANNELS 3 Zrotation Xrotation Yrotation
                  JOINT LeftHand
                  {
                    OFFSET 24.5451 1.51738e-005 0
                    CHANNELS 3 Zrotation Xrotation Yrotation
                    End Site
                    {
                      OFFSET 0 0 0
                    }
                  }
                }
              }
            }
            JOINT Neck
            {
              OFFSET 5.0226 -0.0266342 0
              CHANNELS 3 Zrotation Xrotation Yrotation
              JOINT Head
              {
                OFFSET 6.69364 2.86102e-005 0
                CHANNELS 3 Zrotation Xrotation Yrotation
                End Site
                {
                  OFFSET 0 0 0
                }
              }
            }
          }
        }
      }
    }
  }
}
MOTION
Frames:	18
Frame Time:	0.0416667
-51.2062 93.4503 -83.3044 92.5528 -39.4468 88.4972 -170.888 23.6937 86.6296 -52.6952 19.8966 -4.01194 63.4508 1.71471 1.90703 40.8693 12.7027 8.61935 176.329 38.9606 88.5348 -54.1687 9.62056 -1.59822 60.8211 -1.04801 -0.721437 34.6769 -1.8277 -10.0369 -0.335231 8.22176 -89.2994 10.4309 -0.346543 1.42274 -1.24084 -0.283604 1.43661 -23.7713 -0.758081 1.25286 -3.75867 -0.758084 1.25286 91.4996 -40.1019 -100.413 38.6029 -20.2803 30.7058 -9.68693 -2.27384 -69.6949 -19.1781 -0.457493 -2.54994 -91.5416 -45.4766 75.764 -15.9942 -0.898462 14.7736 14.9772 -4.76459 -96.1775 36.7656 4.18366 7.6165 -7.89981 -2.50252 -1.72976 10.7117 -2.43322 -0.719875 
-47.4318 94.3418 -79.4968 92.1462 -38.0983 88.1819 -170.91 21.4466 88.6544 -52.1284 25.5908 -3.96303 60.5269 -0.727797 0.583965 40.9753 12.9152 8.87211 176.903 36.9319 87.2293 -34.5923 5.20104 -1.54298 50.3351 2.98755 2.42866 26.7128 -1.06247 -10.9556 -0.501512 8.129 -89.3749 10.6184 -0.711173 1.30692 -1.05302 -0.652965 1.33694 -23.5861 -1.07108 1.03279 -3.57349 -1.07106 1.0328 91.7379 -40.1332 -99.9933 38.874 -17.669 34.1231 -6.96802 -0.63988 -69.8615 -17.8668 -0.465341 -2.24394 -91.0895 -44.3411 76.1733 -17.4345 -0.0573955 13.8147 14.648 -6.05322 -99.6999 36.3568 3.70359 6.39694 -10.5981 -2.90689 -2.33188 12.1547 -2.80756 -0.283547 
-43.3703 95.185 -75.4854 93.4624 -36.155 88.7549 -171.128 17.2823 90.7759 -50.8532 31.032 -3.39512 58.3366 -2.30463 -0.379952 38.6841 9.3929 5.21442 176.141 32.0552 86.286 -15.7439 -0.775995 -1.711 43.3126 5.75444 5.15049 19.5973 -0.184275 -9.17781 -0.714877 8.15429 -89.4171 10.5707 -1.15584 1.26264 -1.10042 -1.09917 1.31228 -23.6371 -1.48187 0.856887 -3.62445 -1.48189 0.85687 92.2903 -39.6127 -99.1656 39.8447 -15.4766 37.4248 -6.97919 0.0841854 -70.5941 -16.024 -0.369974 -2.62036 -90.7456 -43.2686 76.4378 -18.3898 1.56951 13.536 15.3414 -7.89473 -103.491 34.897 3.75952 7.01113 -12.5913 -3.40908 -3.52691 13.0285 -3.19228 0.674352 
-39.2305 95.4206 -71.1536 93.6632 -34.2154 89.0378 -170.954 14.1782 93.3884 -49.8462 38.091 -2.86628 54.8459 -4.58174 -1.00518 41.3715 11.1635 3.97322 175.163 30.3359 86.0567 -6.21509 -0.73606 -1.46958 40.5096 7.04562 6.59461 16.2615 0.165824 -6.31659 -0.893581 8.06884 -89.4846 10.7437 -1.54178 1.16698 -0.926903 -1.48893 1.2337 -23.4678 -1.82121 0.649582 -3.45512 -1.82121 0.649576 93.0557 -38.3154 -98.1311 41.507 -13.0969 40.4702 -6.85463 -0.341817 -70.8336 -14.9004 -0.204674 -3.73085 -90.1688 -42.0556 77.0505 -19.0757 3.58836 13.2344 15.6199 -9.78619 -107.177 32.7687 3.41141 6.65934 -13.9292 -4.02648 -4.68051 13.8811 -3.71667 1.4536 
-34.9784 94.9832 -66.8928 94.8136 -31.6726 89.1942 -171.403 11.1287 95.0658 -51.3253 42.0984 -1.43268 53.0326 -6.01269 -2.17845 39.9665 9.35522 2.3493 174.555 30.0509 84.8338 -6.30715 2.13742 -1.35512 39.5719 7.04012 6.71536 10.8408 0.585167 -6.55888 -1.16112 8.03993 -89.4284 10.8059 -2.04812 1.32727 -0.864255 -1.9877 1.41614 -23.4106 -2.35229 0.650139 -3.39796 -2.35227 0.650141 93.8113 -36.7785 -97.1297 43.5571 -10.8106 43.4481 -8.75075 -0.682079 -71.6261 -13.0211 -0.223284 -3.47098 -89.0902 -40.2686 78.3723 -20.231 6.56019 13.1208 14.9695 -11.831 -111.11 31.4329 2.84833 5.2814 -14.0678 -4.55736 -6.52214 13.4326 -4.08621 2.49155 
-30.7695 93.561 -62.742 96.7073 -29.6292 89.326 -172.24 8.3589 96.0571 -55.3882 45.0609 0.470168 51.4858 -7.20263 -3.05401 41.3932 10.9418 3.39334 173.928 30.036 83.7123 -12.5174 1.59742 -1.21163 38.5379 7.26354 7.02204 7.01432 1.06548 -9.47592 -1.37702 8.01139 -89.3276 10.8678 -2.43091 1.56533 -0.80197 -2.35969 1.67081 -23.353 -2.78892 0.761977 -3.34034 -2.78891 0.761977 94.1018 -35.4901 -96.8899 44.6974 -8.59632 46.2098 -9.93312 -0.841204 -71.4278 -10.2639 -0.0981204 -4.68729 -88.6994 -39.602 78.8606 -20.3108 9.03387 13.7745 14.5095 -13.8162 -114.816 29.4529 2.2946 3.98233 -14.4905 -5.10341 -7.22863 12.6813 -4.63779 2.71875 
-26.7682 91.4972 -58.9846 98.5351 -28.0973 88.7771 -173.774 6.68061 95.7571 -61.4532 44.3069 2.37924 51.3269 -7.6978 -4.48474 38.6937 10.2427 7.39377 172.248 32.0449 82.4712 -25.6958 0.401182 -0.0238072 45.1381 5.6167 4.89474 13.8009 0.247145 -1.58531 -1.47166 7.9705 -89.1712 10.9527 -2.5462 1.89066 -0.717289 -2.46055 2.0009 -23.2682 -2.99662 1.03764 -3.25558 -2.99664 1.03763 94.2754 -35.7886 -96.5018 43.9682 -7.23223 48.1667 -9.9596 -0.988151 -70.6179 -8.72192 -0.0592003 -5.23438 -88.7335 -39.8003 78.8519 -19.7201 11.8477 14.2915 14.612 -15.593 -116.963 28.6992 2.4842 4.86877 -14.6108 -6.05665 -7.96657 11.3706 -5.58094 3.09266 
-22.99 89.691 -55.1744 100.287 -27.557 90.703 -174.692 6.40262 97.5008 -68.7299 41.9664 4.27059 51.7383 -6.86769 -2.59754 36.9918 11.6407 14.7925 171.953 33.1065 84.4733 -39.4269 -0.288909 0.15372 59.6372 0.675024 0.341707 18.1262 0.119203 -2.42848 -1.40355 8.00586 -89.3931 10.88 -2.51391 1.44403 -0.789436 -2.44795 1.55331 -23.3425 -2.83162 0.62128 -3.32989 -2.83161 0.621279 93.9514 -36.29 -96.9844 42.3892 -7.25416 48.0275 -9.71656 -1.32387 -68.1193 -8.89147 -0.0887957 -4.82394 -89.1921 -41.0924 78.4055 -19.9279 12.7669 14.3838 15.3476 -15.9763 -116.043 26.8209 2.31008 4.82735 -14.054 -7.29982 -6.54811 10.1399 -6.95914 2.0102 
-19.7333 88.1857 -51.5466 100.88 -28.2263 93.824 -175.326 9.09594 100.377 -76.286 31.6881 5.12584 55.3464 -3.86213 -0.0435921 34.5103 9.62876 16.0008 173.32 34.4652 88.6684 -49.3944 2.97705 -0.397351 63.4964 -1.22633 -0.933417 25.7545 -0.100405 -1.7805 -1.13014 8.13086 -89.8527 10.619 -2.1826 0.489505 -1.05019 -2.15893 0.585134 -23.6001 -2.22876 -0.189414 -3.58747 -2.22876 -0.189418 93.439 -38.5684 -97.3947 38.5898 -9.09621 43.0217 -9.36044 -2.91255 -62.9471 -10.3761 -0.155639 -4.09188 -90.6075 -44.2568 76.9122 -19.4246 11.8126 13.0551 16.8622 -14.4499 -111.332 26.6167 2.63806 6.15853 -10.9184 -8.6973 -5.31671 7.63411 -8.29781 1.5258 
-16.9855 87.3379 -49.4155 101.074 -28.4783 94.6342 -176.481 13.7103 99.4045 -81.7795 21.4351 5.02513 57.4276 -1.95394 2.45934 34.7807 9.71955 15.5382 173.78 35.2334 89.9608 -55.3664 4.02945 -0.640801 65.2472 -2.63166 -1.77286 30.7278 -0.329492 -2.18309 -0.978353 8.28061 -90.095 10.3137 -1.99258 -0.0163622 -1.35573 -1.99138 0.0713836 -23.9023 -1.89549 -0.614672 -3.88965 -1.89551 -0.614674 92.9812 -40.0106 -97.8699 34.438 -11.6912 33.5663 -7.49046 -5.74243 -54.027 -11.2359 -0.305181 -2.54076 -93.0126 -47.2042 73.9725 -19.5928 8.50606 12.4094 20.8744 -11.1038 -103.001 24.9022 2.66805 6.96499 -8.86154 -9.81685 -4.41017 6.67615 -9.41202 0.942832 
-14.7144 87.0927 -47.639 102.292 -29.377 94.3206 -175.518 17.41 96.7693 -84.1367 13.4644 4.41865 59.0226 -0.579286 3.8689 36.2997 11.2951 15.6613 173.62 33.6392 89.7384 -58.14 3.87499 -1.07753 69.4627 -4.54872 -2.76197 30.9445 -0.318102 -2.04356 -0.877216 8.34903 -90.0584 10.177 -1.77451 0.034285 -1.49274 -1.77128 0.112373 -24.0371 -1.70277 -0.500778 -4.02441 -1.70275 -0.500775 92.7181 -39.3746 -98.4766 32.7105 -13.4457 25.3522 -6.3312 -8.43783 -46.2667 -8.9697 -0.38604 -0.807316 -93.7726 -47.9743 73.0419 -22.2115 6.6602 13.2223 22.575 -6.68187 -92.5814 26.5205 2.89454 7.17754 -10.4778 -10.2779 -3.06363 7.83721 -10.1378 -0.675521 
-12.9167 87.0471 -45.7653 101.944 -30.2356 93.8805 -173.843 22.2372 95.352 -84.119 8.77558 3.83177 60.0578 0.391076 5.12473 39.1193 14.1564 15.6521 173.776 33.21 90.435 -59.8824 4.87505 -1.3821 71.4052 -5.44652 -3.19559 32.3894 -0.334751 -1.80207 -0.703841 8.26657 -90.07 10.3412 -1.43422 -0.0142675 -1.32894 -1.43347 0.0488708 -23.8701 -1.36362 -0.444731 -3.85743 -1.36362 -0.444737 92.7823 -40.0733 -98.2004 30.573 -12.7076 19.5996 -7.62066 -9.77635 -44.4384 -5.49589 -0.358348 1.42803 -93.8287 -48.2255 73.03 -24.69 6.39096 13.9419 20.3209 -2.65832 -84.2767 27.6011 3.20041 7.89955 -11.3647 -10.9359 -3.38549 8.00891 -10.7447 0.150704 
-11.178 87.1356 -44.2968 101.082 -31.9382 92.9489 -171.334 26.7493 93.552 -82.1315 5.16116 2.80915 61.3505 0.700414 4.35762 41.4848 17.4067 17.283 174.977 33.5546 90.5921 -61.3726 5.12634 -2.0227 71.8841 -5.96637 -3.43722 34.3798 -0.42025 -1.92085 -0.390855 8.18732 -90.0524 10.4994 -0.802541 -0.0327969 -1.17131 -0.803207 0.00255612 -23.7082 -0.755592 -0.272488 -3.69552 -0.755579 -0.272492 92.7189 -40.1389 -98.2951 30.0754 -10.8302 16.1616 -9.70039 -9.37257 -46.5083 -4.063 -0.298193 1.79648 -93.6854 -48.1244 73.2162 -26.4458 6.6449 14.2846 17.1763 1.23503 -75.2369 25.1852 2.59102 6.50342 -11.0254 -11.6244 -3.50871 7.79884 -11.3846 0.473752 
-9.35772 87.4304 -42.9867 101.048 -33.047 92.3771 -169.464 29.4336 92.1681 -78.4556 4.79517 1.48373 62.7823 1.48263 4.45999 42.1986 18.5321 17.9878 175.59 32.437 90.4184 -61.938 4.95117 -2.46245 73.2611 -6.8034 -3.76652 34.778 -0.795451 -4.02111 -0.160275 8.20799 -90.0413 10.4578 -0.338262 -0.0521679 -1.21307 -0.340243 -0.0372338 -23.7485 -0.306943 -0.151418 -3.73587 -0.306957 -0.151421 92.5327 -39.6041 -98.7453 29.9426 -10.051 13.949 -10.2992 -8.02918 -49.8932 -6.7017 -0.384532 0.580439 -93.6082 -47.992 73.2944 -27.3921 7.24618 14.4201 18.4103 5.84331 -66.778 22.3745 2.36534 6.79064 -10.974 -12.109 -3.18673 8.70373 -11.896 0.182141 
-7.65943 87.9903 -41.7837 100.285 -33.2508 91.7053 -168.695 31.9776 91.42 -73.568 6.02696 0.188031 64.1004 2.73145 5.00361 42.7088 20.1723 19.9782 175.334 30.8413 90.3121 -61.0166 4.83393 -2.58679 75.6508 -7.8111 -4.0933 33.6768 -0.793134 -4.37034 -0.0356059 8.15856 -90.0408 10.5568 -0.0896012 -0.0730276 -1.11418 -0.0927194 -0.0690216 -23.6493 -0.0635216 -0.0965828 -3.63666 -0.0634898 -0.0965736 92.5307 -39.6355 -98.7413 29.1638 -9.91331 11.7627 -10.861 -6.5569 -54.1318 -9.02541 -0.408238 -0.645536 -93.4602 -47.7819 73.4576 -28.0283 6.7138 14.8278 17.6407 10.1342 -59.0025 19.9176 1.886 5.64146 -11.1996 -12.4477 -3.41158 9.06816 -12.2391 0.0809482 
-6.23446 88.7308 -40.7708 99.7555 -34.1768 90.9655 -168.23 33.4658 91.3464 -67.6401 5.70397 -1.01923 64.4655 2.55613 3.93002 43.8596 21.5772 20.1935 175.668 29.3865 90.0926 -59.7064 4.8967 -3.10511 76.4039 -8.01641 -4.15647 33.9977 -0.700718 -3.69271 0.104361 8.12018 -89.9937 10.6335 0.210772 -0.00660377 -1.03738 0.210299 -0.0158856 -23.5727 0.203016 0.0570482 -3.56004 0.203021 0.0570456 92.4407 -39.352 -98.9671 28.6844 -9.28761 9.62261 -11.8909 -5.59932 -58.942 -10.6162 -0.440103 -0.882201 -93.113 -47.647 73.9439 -28.5424 5.07731 16.0644 16.1559 13.1092 -52.7086 16.0857 1.54209 5.67019 -11.2576 -12.5475 -3.0469 9.0903 -12.4236 -0.638542 
-4.64181 89.5813 -39.8245 99.0176 -34.4197 90.3707 -169.182 34.5652 91.6353 -62.0117 5.32303 -1.62381 64.0525 2.0461 3.23008 43.5056 20.4064 18.825 175.849 27.7555 89.876 -58.0447 4.49982 -3.39654 76.7308 -8.21703 -4.19536 34.305 -0.892824 -4.75379 0.16479 8.07964 -89.9594 10.7145 0.346687 0.0488579 -0.956369 0.348485 0.0335526 -23.4918 0.315967 0.150797 -3.47919 0.315971 0.150792 92.5621 -39.0861 -98.8191 28.6857 -8.49675 7.58927 -12.9324 -4.39889 -63.8987 -11.2655 -0.487827 -0.605261 -92.716 -47.3092 74.452 -28.829 3.62175 17.4971 14.312 15.2369 -47.0392 12.0762 1.16203 5.47316 -11.0031 -12.6208 -3.56109 9.08381 -12.4071 -0.0394833 
-2.84996 90.2122 -39.0385 98.8883 -34.5198 89.9425 -170.881 34.4381 91.8 -56.551 6.76654 -1.83612 64.0142 2.07235 2.99194 41.5297 17.508 17.3933 176.181 25.8423 89.5023 -56.7219 5.26224 -3.96296 77.2422 -8.28596 -4.19619 34.7775 -0.898269 -4.61907 0.180757 8.07558 -89.9164 10.7225 0.398513 0.129692 -0.948398 0.403849 0.112012 -23.4839 0.341101 0.243471 -3.47124 0.341114 0.24347 92.6845 -38.7054 -98.6957 28.8498 -7.66505 5.97844 -13.1796 -3.05705 -68.7495 -12.1322 -0.513489 -0.620399 -92.4271 -47.1525 74.8491 -28.9702 2.73595 19.3265 13.3529 17.7903 -42.6882 9.29348 0.924292 5.53917 -10.7198 -12.5564 -2.82605 8.29133 -12.4643 -1.11757 
